{"accessors" : [{"bufferView" : 0, "byteOffset" : 0, "componentType" : 5123, "count" : 120, "type" : "SCALAR", "max" : [79], "min" : [0]}, {"bufferView" : 1, "byteOffset" : 0, "componentType" : 5126, "count" : 80, "type" : "VEC3", "max" : [10.21628189086914, 16.465057373046875, 1.350000023841858], "min" : [-2.662870168685913, 3.6766343116760254, 1.2000000476837158], "name" : "POSITION"}, {"bufferView" : 1, "byteOffset" : 12, "componentType" : 5126, "count" : 80, "type" : "VEC3", "max" : [0.9986990094184875, 1.0000044107437134, -0], "min" : [-0.9986990094184875, -1.0000044107437134, -0], "name" : "NORMAL"}, {"bufferView" : 0, "byteOffset" : 240, "componentType" : 5123, "count" : 120, "type" : "SCALAR", "max" : [79], "min" : [0]}, {"bufferView" : 2, "byteOffset" : 0, "componentType" : 5126, "count" : 80, "type" : "VEC3", "max" : [10.150391578674316, 16.399166107177734, 1.5], "min" : [-2.596980094909668, 3.7425243854522705, 1.350000023841858], "name" : "POSITION"}, {"bufferView" : 2, "byteOffset" : 12, "componentType" : 5126, "count" : 80, "type" : "VEC3", "max" : [0.999982476234436, 1.0000044107437134, -0], "min" : [-0.999982476234436, -1.0000044107437134, -0], "name" : "NORMAL"}, {"bufferView" : 0, "byteOffset" : 480, "componentType" : 5123, "count" : 120, "type" : "SCALAR", "max" : [79], "min" : [0]}, {"bufferView" : 3, "byteOffset" : 0, "componentType" : 5126, "count" : 80, "type" : "VEC3", "max" : [10.084501266479492, 16.333276748657227, 1.649999976158142], "min" : [-2.5310897827148438, 3.8084146976470947, 1.5], "name" : "POSITION"}, {"bufferView" : 3, "byteOffset" : 12, "componentType" : 5126, "count" : 80, "type" : "VEC3", "max" : [0.9979576468467712, 1.0000044107437134, -0], "min" : [-0.9979576468467712, -1.0000044107437134, -0], "name" : "NORMAL"}, {"bufferView" : 0, "byteOffset" : 720, "componentType" : 5123, "count" : 120, "type" : "SCALAR", "max" : [79], "min" : [0]}, {"bufferView" : 4, "byteOffset" : 0, "componentType" : 5126, "count" : 80, "type" : "VEC3", "max" : [10.018610954284668, 16.26738739013672, 1.7999999523162842], "min" : [-2.4651997089385986, 3.87430477142334, 1.649999976158142], "name" : "POSITION"}, {"bufferView" : 4, "byteOffset" : 12, "componentType" : 5126, "count" : 80, "type" : "VEC3", "max" : [0.9927356839179993, 1.0000044107437134, -0], "min" : [-0.9927356839179993, -1.0000044107437134, -0], "name" : "NORMAL"}, {"bufferView" : 0, "byteOffset" : 960, "componentType" : 5123, "count" : 120, "type" : "SCALAR", "max" : [79], "min" : [0]}, {"bufferView" : 5, "byteOffset" : 0, "componentType" : 5126, "count" : 80, "type" : "VEC3", "max" : [9.95272159576416, 16.201496124267578, 1.9500000476837158], "min" : [-2.3993096351623535, 3.940194845199585, 1.7999999523162842], "name" : "POSITION"}, {"bufferView" : 5, "byteOffset" : 12, "componentType" : 5126, "count" : 80, "type" : "VEC3", "max" : [0.9965723156929016, 1.0000044107437134, -0], "min" : [-0.9965723156929016, -1.0000044107437134, -0], "name" : "NORMAL"}, {"bufferView" : 0, "byteOffset" : 1200, "componentType" : 5123, "count" : 120, "type" : "SCALAR", "max" : [79], "min" : [0]}, {"bufferView" : 6, "byteOffset" : 0, "componentType" : 5126, "count" : 80, "type" : "VEC3", "max" : [9.886831283569336, 16.13560676574707, 2.0999999046325684], "min" : [-2.3334193229675293, 4.00608491897583, 1.9500000476837158], "name" : "POSITION"}, {"bufferView" : 6, "byteOffset" : 12, "componentType" : 5126, "count" : 80, "type" : "VEC3", "max" : [0.999445915222168, 1.0000044107437134, -0], "min" : [-0.999445915222168, -1.0000044107437134, -0], "name" : "NORMAL"}, {"bufferView" : 0, "byteOffset" : 1440, "componentType" : 5123, "count" : 60, "type" : "SCALAR", "max" : [39], "min" : [0]}, {"bufferView" : 7, "byteOffset" : 0, "componentType" : 5126, "count" : 40, "type" : "VEC3", "max" : [10.282172203063965, 16.530946731567383, 1.2000000476837158], "min" : [-2.728760242462158, 3.6107442378997803, 1.0499999523162842], "name" : "POSITION"}, {"bufferView" : 7, "byteOffset" : 12, "componentType" : 5126, "count" : 40, "type" : "VEC3", "max" : [0.9417635202407837, 1.0000044107437134, 0], "min" : [-0.9940882325172424, -0.8371380567550659, 0], "name" : "NORMAL"}, {"bufferView" : 0, "byteOffset" : 1560, "componentType" : 5123, "count" : 60, "type" : "SCALAR", "max" : [39], "min" : [0]}, {"bufferView" : 8, "byteOffset" : 0, "componentType" : 5126, "count" : 40, "type" : "VEC3", "max" : [10.348043441772461, 16.596940994262695, 1.0499999523162842], "min" : [-2.7946693897247314, 3.544956922531128, 0.8999999761581421], "name" : "POSITION"}, {"bufferView" : 8, "byteOffset" : 12, "componentType" : 5126, "count" : 40, "type" : "VEC3", "max" : [0.9220110177993774, 1.0000044107437134, -0], "min" : [-0.9862253665924072, -0.8036721348762512, -0], "name" : "NORMAL"}, {"bufferView" : 0, "byteOffset" : 1680, "componentType" : 5123, "count" : 60, "type" : "SCALAR", "max" : [39], "min" : [0]}, {"bufferView" : 9, "byteOffset" : 0, "componentType" : 5126, "count" : 40, "type" : "VEC3", "max" : [10.413933753967285, 16.662830352783203, 0.8999999761581421], "min" : [-2.8605597019195557, 3.479066848754883, 0.75], "name" : "POSITION"}, {"bufferView" : 9, "byteOffset" : 12, "componentType" : 5126, "count" : 40, "type" : "VEC3", "max" : [0.8991527557373047, 1.0000044107437134, -0], "min" : [-0.9840839505195618, -0.7664851546287537, -0], "name" : "NORMAL"}, {"bufferView" : 0, "byteOffset" : 1800, "componentType" : 5123, "count" : 120, "type" : "SCALAR", "max" : [79], "min" : [0]}, {"bufferView" : 10, "byteOffset" : 0, "componentType" : 5126, "count" : 80, "type" : "VEC3", "max" : [10.479823112487793, 16.72871971130371, 0.75], "min" : [-2.926449775695801, 3.4131765365600586, 0.6000000238418579], "name" : "POSITION"}, {"bufferView" : 10, "byteOffset" : 12, "componentType" : 5126, "count" : 80, "type" : "VEC3", "max" : [0.9883990287780762, 1.0000044107437134, -0], "min" : [-0.9883990287780762, -1.0000044107437134, -0], "name" : "NORMAL"}, {"bufferView" : 0, "byteOffset" : 2040, "componentType" : 5123, "count" : 120, "type" : "SCALAR", "max" : [79], "min" : [0]}, {"bufferView" : 11, "byteOffset" : 0, "componentType" : 5126, "count" : 80, "type" : "VEC3", "max" : [10.545713424682617, 16.79461097717285, 0.6000000238418579], "min" : [-2.992339849472046, 3.3472864627838135, 0.44999998807907104], "name" : "POSITION"}, {"bufferView" : 11, "byteOffset" : 12, "componentType" : 5126, "count" : 80, "type" : "VEC3", "max" : [0.9920368790626526, 1.0000044107437134, 1.2401294184269385E-12], "min" : [-0.9920368790626526, -1.0000044107437134, -0], "name" : "NORMAL"}, {"bufferView" : 0, "byteOffset" : 2280, "componentType" : 5123, "count" : 120, "type" : "SCALAR", "max" : [79], "min" : [0]}, {"bufferView" : 12, "byteOffset" : 0, "componentType" : 5126, "count" : 80, "type" : "VEC3", "max" : [10.611603736877441, 16.86050033569336, 0.44999998807907104], "min" : [-3.05823016166687, 3.2813963890075684, 0.30000001192092896], "name" : "POSITION"}, {"bufferView" : 12, "byteOffset" : 12, "componentType" : 5126, "count" : 80, "type" : "VEC3", "max" : [0.9949948191642761, 1.0000044107437134, -0], "min" : [-0.9949948191642761, -1.0000044107437134, -0], "name" : "NORMAL"}, {"bufferView" : 0, "byteOffset" : 2520, "componentType" : 5123, "count" : 120, "type" : "SCALAR", "max" : [79], "min" : [0]}, {"bufferView" : 13, "byteOffset" : 0, "componentType" : 5126, "count" : 80, "type" : "VEC3", "max" : [10.677494049072266, 16.9263916015625, 0.30000001192092896], "min" : [-3.1241202354431152, 3.215506076812744, 0.15000000596046448], "name" : "POSITION"}, {"bufferView" : 13, "byteOffset" : 12, "componentType" : 5126, "count" : 80, "type" : "VEC3", "max" : [0.9972707629203796, 1.0000044107437134, 1.1009665401573443E-12], "min" : [-0.9972707629203796, -1.0000044107437134, -2.209475913792186E-15], "name" : "NORMAL"}, {"bufferView" : 0, "byteOffset" : 2760, "componentType" : 5123, "count" : 120, "type" : "SCALAR", "max" : [75], "min" : [0]}, {"bufferView" : 14, "byteOffset" : 0, "componentType" : 5126, "count" : 76, "type" : "VEC3", "max" : [9.425580978393555, 15.674478530883789, 3.1500000953674316], "min" : [-1.8722072839736938, 4.511345863342285, 3], "name" : "POSITION"}, {"bufferView" : 14, "byteOffset" : 12, "componentType" : 5126, "count" : 76, "type" : "VEC3", "max" : [1.0000044107437134, 1.0000044107437134, -0], "min" : [-1.0000044107437134, -1.0000044107437134, -0], "name" : "NORMAL"}, {"bufferView" : 0, "byteOffset" : 3000, "componentType" : 5123, "count" : 120, "type" : "SCALAR", "max" : [79], "min" : [0]}, {"bufferView" : 15, "byteOffset" : 0, "componentType" : 5126, "count" : 80, "type" : "VEC3", "max" : [9.491471290588379, 15.740367889404297, 3], "min" : [-1.9380974769592285, 4.401528835296631, 2.8499999046325684], "name" : "POSITION"}, {"bufferView" : 15, "byteOffset" : 12, "componentType" : 5126, "count" : 80, "type" : "VEC3", "max" : [0.999813973903656, 1.0000044107437134, -0], "min" : [-0.999813973903656, -1.0000044107437134, -0], "name" : "NORMAL"}, {"bufferView" : 0, "byteOffset" : 3240, "componentType" : 5123, "count" : 120, "type" : "SCALAR", "max" : [79], "min" : [0]}, {"bufferView" : 16, "byteOffset" : 0, "componentType" : 5126, "count" : 80, "type" : "VEC3", "max" : [9.557361602783203, 15.806258201599121, 2.8499999046325684], "min" : [-2.0039875507354736, 4.335638999938965, 2.700000047683716], "name" : "POSITION"}, {"bufferView" : 16, "byteOffset" : 12, "componentType" : 5126, "count" : 80, "type" : "VEC3", "max" : [0.999199390411377, 1.0000044107437134, -0], "min" : [-0.999199390411377, -1.0000044107437134, -0], "name" : "NORMAL"}, {"bufferView" : 0, "byteOffset" : 3480, "componentType" : 5123, "count" : 120, "type" : "SCALAR", "max" : [79], "min" : [0]}, {"bufferView" : 17, "byteOffset" : 0, "componentType" : 5126, "count" : 80, "type" : "VEC3", "max" : [9.623251914978027, 15.872148513793945, 2.700000047683716], "min" : [-2.069877862930298, 4.269748687744141, 2.549999952316284], "name" : "POSITION"}, {"bufferView" : 17, "byteOffset" : 12, "componentType" : 5126, "count" : 80, "type" : "VEC3", "max" : [0.9980852603912354, 1.0000044107437134, -0], "min" : [-0.9980852603912354, -1.0000044107437134, -0], "name" : "NORMAL"}, {"bufferView" : 0, "byteOffset" : 3720, "componentType" : 5123, "count" : 120, "type" : "SCALAR", "max" : [79], "min" : [0]}, {"bufferView" : 18, "byteOffset" : 0, "componentType" : 5126, "count" : 80, "type" : "VEC3", "max" : [9.689141273498535, 15.93803882598877, 2.549999952316284], "min" : [-2.135767936706543, 4.203858375549316, 2.4000000953674316], "name" : "POSITION"}, {"bufferView" : 18, "byteOffset" : 12, "componentType" : 5126, "count" : 80, "type" : "VEC3", "max" : [0.9963815212249756, 1.0000044107437134, -0], "min" : [-0.9963815212249756, -1.0000044107437134, -0], "name" : "NORMAL"}, {"bufferView" : 0, "byteOffset" : 3960, "componentType" : 5123, "count" : 120, "type" : "SCALAR", "max" : [79], "min" : [0]}, {"bufferView" : 19, "byteOffset" : 0, "componentType" : 5126, "count" : 80, "type" : "VEC3", "max" : [9.75503158569336, 16.003929138183594, 2.4000000953674316], "min" : [-2.201658010482788, 4.13796854019165, 2.25], "name" : "POSITION"}, {"bufferView" : 19, "byteOffset" : 12, "componentType" : 5126, "count" : 80, "type" : "VEC3", "max" : [0.998018205165863, 1.0000044107437134, -0], "min" : [-0.998018205165863, -1.0000044107437134, -0], "name" : "NORMAL"}, {"bufferView" : 0, "byteOffset" : 4200, "componentType" : 5123, "count" : 120, "type" : "SCALAR", "max" : [79], "min" : [0]}, {"bufferView" : 20, "byteOffset" : 0, "componentType" : 5126, "count" : 80, "type" : "VEC3", "max" : [9.820921897888184, 16.0698184967041, 2.25], "min" : [-2.2675483226776123, 4.072078227996826, 2.0999999046325684], "name" : "POSITION"}, {"bufferView" : 20, "byteOffset" : 12, "componentType" : 5126, "count" : 80, "type" : "VEC3", "max" : [0.9998888373374939, 1.0000044107437134, -0], "min" : [-0.9998888373374939, -1.0000044107437134, -0], "name" : "NORMAL"}, {"bufferView" : 0, "byteOffset" : 4440, "componentType" : 5123, "count" : 60, "type" : "SCALAR", "max" : [39], "min" : [0]}, {"bufferView" : 21, "byteOffset" : 0, "componentType" : 5126, "count" : 40, "type" : "VEC3", "max" : [10.74338436126709, 16.992280960083008, 0.15000000596046448], "min" : [-3.1900103092193604, 3.149616003036499, 0], "name" : "POSITION"}, {"bufferView" : 21, "byteOffset" : 12, "componentType" : 5126, "count" : 40, "type" : "VEC3", "max" : [0.8465021848678589, 1.0000044107437134, -0], "min" : [-0.9988632798194885, -0.7929760813713074, -0], "name" : "NORMAL"}], "asset" : {"generator" : "Aspose.3D 21.5", "version" : "2.0"}, "buffers" : [{"uri" : "data:application/octet-stream;base64,", "byteLength" : 59368}], "bufferViews" : [{"buffer" : 0, "byteOffset" : 0, "byteLength" : 4560, "target" : 34963}, {"buffer" : 0, "byteOffset" : 4564, "byteLength" : 2880, "byteStride" : 24, "target" : 34962}, {"buffer" : 0, "byteOffset" : 7448, "byteLength" : 2880, "byteStride" : 24, "target" : 34962}, {"buffer" : 0, "byteOffset" : 10332, "byteLength" : 2880, "byteStride" : 24, "target" : 34962}, {"buffer" : 0, "byteOffset" : 13216, "byteLength" : 2880, "byteStride" : 24, "target" : 34962}, {"buffer" : 0, "byteOffset" : 16100, "byteLength" : 2880, "byteStride" : 24, "target" : 34962}, {"buffer" : 0, "byteOffset" : 18984, "byteLength" : 2880, "byteStride" : 24, "target" : 34962}, {"buffer" : 0, "byteOffset" : 21868, "byteLength" : 1440, "byteStride" : 24, "target" : 34962}, {"buffer" : 0, "byteOffset" : 23312, "byteLength" : 1440, "byteStride" : 24, "target" : 34962}, {"buffer" : 0, "byteOffset" : 24756, "byteLength" : 1440, "byteStride" : 24, "target" : 34962}, {"buffer" : 0, "byteOffset" : 26200, "byteLength" : 2880, "byteStride" : 24, "target" : 34962}, {"buffer" : 0, "byteOffset" : 29084, "byteLength" : 2880, "byteStride" : 24, "target" : 34962}, {"buffer" : 0, "byteOffset" : 31968, "byteLength" : 2880, "byteStride" : 24, "target" : 34962}, {"buffer" : 0, "byteOffset" : 34852, "byteLength" : 2880, "byteStride" : 24, "target" : 34962}, {"buffer" : 0, "byteOffset" : 37736, "byteLength" : 2880, "byteStride" : 24, "target" : 34962}, {"buffer" : 0, "byteOffset" : 40620, "byteLength" : 2880, "byteStride" : 24, "target" : 34962}, {"buffer" : 0, "byteOffset" : 43504, "byteLength" : 2880, "byteStride" : 24, "target" : 34962}, {"buffer" : 0, "byteOffset" : 46388, "byteLength" : 2880, "byteStride" : 24, "target" : 34962}, {"buffer" : 0, "byteOffset" : 49272, "byteLength" : 2880, "byteStride" : 24, "target" : 34962}, {"buffer" : 0, "byteOffset" : 52156, "byteLength" : 2880, "byteStride" : 24, "target" : 34962}, {"buffer" : 0, "byteOffset" : 55040, "byteLength" : 2880, "byteStride" : 24, "target" : 34962}, {"buffer" : 0, "byteOffset" : 57924, "byteLength" : 1440, "byteStride" : 24, "target" : 34962}], "materials" : [{"pbrMetallicRoughness" : {"baseColorFactor" : [1, 1, 1, 1], "metallicFactor" : 0, "roughnessFactor" : 1}, "emissiveFactor" : [0, 0, 0], "alphaMode" : "OPAQUE", "doubleSided" : true}, {"pbrMetallicRoughness" : {"baseColorFactor" : [1, 1, 1, 1], "metallicFactor" : 0, "roughnessFactor" : 1}, "emissiveFactor" : [0, 0, 0], "alphaMode" : "OPAQUE", "doubleSided" : true}, {"pbrMetallicRoughness" : {"baseColorFactor" : [1, 1, 1, 1], "metallicFactor" : 0, "roughnessFactor" : 1}, "emissiveFactor" : [0, 0, 0], "alphaMode" : "OPAQUE", "doubleSided" : true}, {"pbrMetallicRoughness" : {"baseColorFactor" : [1, 1, 1, 1], "metallicFactor" : 0, "roughnessFactor" : 1}, "emissiveFactor" : [0, 0, 0], "alphaMode" : "OPAQUE", "doubleSided" : true}, {"pbrMetallicRoughness" : {"baseColorFactor" : [1, 1, 1, 1], "metallicFactor" : 0, "roughnessFactor" : 1}, "emissiveFactor" : [0, 0, 0], "alphaMode" : "OPAQUE", "doubleSided" : true}, {"pbrMetallicRoughness" : {"baseColorFactor" : [1, 1, 1, 1], "metallicFactor" : 0, "roughnessFactor" : 1}, "emissiveFactor" : [0, 0, 0], "alphaMode" : "OPAQUE", "doubleSided" : true}, {"pbrMetallicRoughness" : {"baseColorFactor" : [1, 1, 1, 1], "metallicFactor" : 0, "roughnessFactor" : 1}, "emissiveFactor" : [0, 0, 0], "alphaMode" : "OPAQUE", "doubleSided" : true}, {"pbrMetallicRoughness" : {"baseColorFactor" : [1, 1, 1, 1], "metallicFactor" : 0, "roughnessFactor" : 1}, "emissiveFactor" : [0, 0, 0], "alphaMode" : "OPAQUE", "doubleSided" : true}, {"pbrMetallicRoughness" : {"baseColorFactor" : [1, 1, 1, 1], "metallicFactor" : 0, "roughnessFactor" : 1}, "emissiveFactor" : [0, 0, 0], "alphaMode" : "OPAQUE", "doubleSided" : true}, {"pbrMetallicRoughness" : {"baseColorFactor" : [1, 1, 1, 1], "metallicFactor" : 0, "roughnessFactor" : 1}, "emissiveFactor" : [0, 0, 0], "alphaMode" : "OPAQUE", "doubleSided" : true}, {"pbrMetallicRoughness" : {"baseColorFactor" : [1, 1, 1, 1], "metallicFactor" : 0, "roughnessFactor" : 1}, "emissiveFactor" : [0, 0, 0], "alphaMode" : "OPAQUE", "doubleSided" : true}, {"pbrMetallicRoughness" : {"baseColorFactor" : [1, 1, 1, 1], "metallicFactor" : 0, "roughnessFactor" : 1}, "emissiveFactor" : [0, 0, 0], "alphaMode" : "OPAQUE", "doubleSided" : true}, {"pbrMetallicRoughness" : {"baseColorFactor" : [1, 1, 1, 1], "metallicFactor" : 0, "roughnessFactor" : 1}, "emissiveFactor" : [0, 0, 0], "alphaMode" : "OPAQUE", "doubleSided" : true}, {"pbrMetallicRoughness" : {"baseColorFactor" : [1, 1, 1, 1], "metallicFactor" : 0, "roughnessFactor" : 1}, "emissiveFactor" : [0, 0, 0], "alphaMode" : "OPAQUE", "doubleSided" : true}, {"pbrMetallicRoughness" : {"baseColorFactor" : [1, 1, 1, 1], "metallicFactor" : 0, "roughnessFactor" : 1}, "emissiveFactor" : [0, 0, 0], "alphaMode" : "OPAQUE", "doubleSided" : true}, {"pbrMetallicRoughness" : {"baseColorFactor" : [1, 1, 1, 1], "metallicFactor" : 0, "roughnessFactor" : 1}, "emissiveFactor" : [0, 0, 0], "alphaMode" : "OPAQUE", "doubleSided" : true}, {"pbrMetallicRoughness" : {"baseColorFactor" : [1, 1, 1, 1], "metallicFactor" : 0, "roughnessFactor" : 1}, "emissiveFactor" : [0, 0, 0], "alphaMode" : "OPAQUE", "doubleSided" : true}, {"pbrMetallicRoughness" : {"baseColorFactor" : [1, 1, 1, 1], "metallicFactor" : 0, "roughnessFactor" : 1}, "emissiveFactor" : [0, 0, 0], "alphaMode" : "OPAQUE", "doubleSided" : true}, {"pbrMetallicRoughness" : {"baseColorFactor" : [1, 1, 1, 1], "metallicFactor" : 0, "roughnessFactor" : 1}, "emissiveFactor" : [0, 0, 0], "alphaMode" : "OPAQUE", "doubleSided" : true}, {"pbrMetallicRoughness" : {"baseColorFactor" : [1, 1, 1, 1], "metallicFactor" : 0, "roughnessFactor" : 1}, "emissiveFactor" : [0, 0, 0], "alphaMode" : "OPAQUE", "doubleSided" : true}, {"pbrMetallicRoughness" : {"baseColorFactor" : [1, 1, 1, 1], "metallicFactor" : 0, "roughnessFactor" : 1}, "emissiveFactor" : [0, 0, 0], "alphaMode" : "OPAQUE", "doubleSided" : true}], "meshes" : [{"primitives" : [{"attributes" : {"POSITION" : 1, "NORMAL" : 2}, "indices" : 0, "material" : 0, "mode" : 4}]}, {"primitives" : [{"attributes" : {"POSITION" : 4, "NORMAL" : 5}, "indices" : 3, "material" : 1, "mode" : 4}]}, {"primitives" : [{"attributes" : {"POSITION" : 7, "NORMAL" : 8}, "indices" : 6, "material" : 2, "mode" : 4}]}, {"primitives" : [{"attributes" : {"POSITION" : 10, "NORMAL" : 11}, "indices" : 9, "material" : 3, "mode" : 4}]}, {"primitives" : [{"attributes" : {"POSITION" : 13, "NORMAL" : 14}, "indices" : 12, "material" : 4, "mode" : 4}]}, {"primitives" : [{"attributes" : {"POSITION" : 16, "NORMAL" : 17}, "indices" : 15, "material" : 5, "mode" : 4}]}, {"primitives" : [{"attributes" : {"POSITION" : 19, "NORMAL" : 20}, "indices" : 18, "material" : 6, "mode" : 4}]}, {"primitives" : [{"attributes" : {"POSITION" : 22, "NORMAL" : 23}, "indices" : 21, "material" : 7, "mode" : 4}]}, {"primitives" : [{"attributes" : {"POSITION" : 25, "NORMAL" : 26}, "indices" : 24, "material" : 8, "mode" : 4}]}, {"primitives" : [{"attributes" : {"POSITION" : 28, "NORMAL" : 29}, "indices" : 27, "material" : 9, "mode" : 4}]}, {"primitives" : [{"attributes" : {"POSITION" : 31, "NORMAL" : 32}, "indices" : 30, "material" : 10, "mode" : 4}]}, {"primitives" : [{"attributes" : {"POSITION" : 34, "NORMAL" : 35}, "indices" : 33, "material" : 11, "mode" : 4}]}, {"primitives" : [{"attributes" : {"POSITION" : 37, "NORMAL" : 38}, "indices" : 36, "material" : 12, "mode" : 4}]}, {"primitives" : [{"attributes" : {"POSITION" : 40, "NORMAL" : 41}, "indices" : 39, "material" : 13, "mode" : 4}]}, {"primitives" : [{"attributes" : {"POSITION" : 43, "NORMAL" : 44}, "indices" : 42, "material" : 14, "mode" : 4}]}, {"primitives" : [{"attributes" : {"POSITION" : 46, "NORMAL" : 47}, "indices" : 45, "material" : 15, "mode" : 4}]}, {"primitives" : [{"attributes" : {"POSITION" : 49, "NORMAL" : 50}, "indices" : 48, "material" : 16, "mode" : 4}]}, {"primitives" : [{"attributes" : {"POSITION" : 52, "NORMAL" : 53}, "indices" : 51, "material" : 17, "mode" : 4}]}, {"primitives" : [{"attributes" : {"POSITION" : 55, "NORMAL" : 56}, "indices" : 54, "material" : 18, "mode" : 4}]}, {"primitives" : [{"attributes" : {"POSITION" : 58, "NORMAL" : 59}, "indices" : 57, "material" : 19, "mode" : 4}]}, {"primitives" : [{"attributes" : {"POSITION" : 61, "NORMAL" : 62}, "indices" : 60, "material" : 20, "mode" : 4}]}], "nodes" : [{"mesh" : 0}, {"mesh" : 1}, {"mesh" : 2}, {"mesh" : 3}, {"mesh" : 4}, {"mesh" : 5}, {"mesh" : 6}, {"mesh" : 7}, {"mesh" : 8}, {"mesh" : 9}, {"mesh" : 10}, {"mesh" : 11}, {"mesh" : 12}, {"mesh" : 13}, {"mesh" : 14}, {"mesh" : 15}, {"mesh" : 16}, {"mesh" : 17}, {"mesh" : 18}, {"mesh" : 19}, {"mesh" : 20}], "scene" : 0, "scenes" : [{"nodes" : [0, 1, 2, 3, 4, 5, 6, 7, 8, 9, 10, 11, 12, 13, 14, 15, 16, 17, 18, 19, 20]}]}